Coordinates
version=1
nRows=17
nColumns=24
inDegrees=yes

Units are S.I. units (second, meters, Newtons, ...)
Angles are in degrees.

endheader
time	pelvis_tilt	pelvis_list	pelvis_rotation	pelvis_tx	pelvis_ty	pelvis_tz	hip_flexion_r	hip_adduction_r	hip_rotation_r	knee_angle_r	ankle_angle_r	subtalar_angle_r	mtp_angle_r	hip_flexion_l	hip_adduction_l	hip_rotation_l	knee_angle_l	ankle_angle_l	subtalar_angle_l	mtp_angle_l	lumbar_extension	lumbar_bending	lumbar_rotation
      0.81683333	      0.91549926	     -0.00102280	      1.40257178	     -0.38212090	      1.02076071	      0.30737678	      7.72144098	      4.27661826	      2.77738701	    -15.00943867	      4.45673923	    -16.51809301	      4.80637304	     13.18731374	     -1.53982894	     -4.35200143	    -67.61168625	      1.84132278	    -16.11642615	      2.85964345	     -2.49603048	     -0.11240486	      1.13089410
      0.82100000	      0.92603575	      0.11311823	      1.17889794	     -0.37687521	      1.02152023	      0.30774616	      7.22071407	      4.16234704	      2.87754474	    -14.67541062	      4.59304967	    -16.30958659	      4.86632179	     13.70503606	     -1.42420241	     -4.53839855	    -67.33803348	      2.14476593	    -15.61042766	      2.86240689	     -2.53113099	     -0.20940308	      1.54044598
      0.82516667	      0.94379574	      0.23498549	      0.95076984	     -0.37166989	      1.02225162	      0.30812913	      6.71664663	      4.03819807	      2.99124258	    -14.34135047	      4.69834857	    -16.09595079	      4.92469019	     14.20827370	     -1.30802168	     -4.73371439	    -67.01873377	      2.42777627	    -15.06268724	      2.88003357	     -2.59488446	     -0.34417947	      1.89141882
      0.82933333	      0.94402145	      0.37166201	      0.71039791	     -0.36645242	      1.02292896	      0.30850839	      6.23769009	      3.89253817	      3.09470448	    -14.01511945	      4.75540044	    -15.89356265	      4.96287995	     14.71175479	     -1.17962641	     -4.94397932	    -66.63503012	      2.66073179	    -14.52806706	      2.90280276	     -2.61686852	     -0.49674189	      2.14661523
      0.83350000	      0.96209675	      0.44721530	      0.50021207	     -0.36127033	      1.02353290	      0.30885870	      5.73196654	      3.81250392	      3.20009025	    -13.67505376	      4.91938574	    -15.68948605	      5.03184717	     15.20913626	     -1.12417784	     -5.11573229	    -66.25848227	      2.98627205	    -13.89044848	      2.95113818	     -2.68096006	     -0.55702932	      2.59508868
      0.83766667	      0.98160573	      0.56633642	      0.26765780	     -0.35607959	      1.02414212	      0.30921011	      5.23316931	      3.68036935	      3.30772331	    -13.34740182	      5.02917179	    -15.48848291	      5.09844258	     15.67451827	     -1.02235866	     -5.31478483	    -65.79493769	      3.23274708	    -13.30315198	      3.00819377	     -2.73414328	     -0.67582470	      2.94831120
      0.84183333	      0.99213997	      0.65188609	      0.05185277	     -0.35091090	      1.02465819	      0.30955586	      4.73887795	      3.58213116	      3.40635318	    -13.00347316	      5.13106535	    -15.29230333	      5.17155433	     16.15493847	     -0.96548256	     -5.49969075	    -65.31965998	      3.48201633	    -12.70488814	      3.08139987	     -2.78491155	     -0.77601086	      3.29499373
      0.84600000	      0.99492388	      0.74332857	     -0.16617086	     -0.34574499	      1.02512940	      0.30988491	      4.26083916	      3.47411847	      3.50540927	    -12.67561434	      5.24349147	    -15.10554677	      5.24311555	     16.62712447	     -0.90173990	     -5.68361994	    -64.79058886	      3.71870971	    -12.11070470	      3.16246731	     -2.81962337	     -0.86756744	      3.62507829
      0.85016667	      1.00595679	      0.82248289	     -0.37946516	     -0.34059597	      1.02555439	      0.31020220	      3.77354757	      3.37667066	      3.60184554	    -12.34372940	      5.35095918	    -14.92141129	      5.31806919	     17.08324416	     -0.85561634	     -5.86452168	    -64.22800729	      3.94400704	    -11.52638148	      3.25558256	     -2.86857129	     -0.95026356	      3.95324750
      0.85433333	      1.00723430	      0.90141287	     -0.58646702	     -0.33545232	      1.02592649	      0.31050680	      3.29924611	      3.27670927	      3.69538221	    -12.01573667	      5.45948068	    -14.74084820	      5.39514307	     17.53705580	     -0.81137952	     -6.04119225	    -63.62193068	      4.15075486	    -10.97025852	      3.35942336	     -2.90577062	     -1.02986409	      4.27322063
      0.85850000	      1.02478447	      0.96732592	     -0.78834622	     -0.33032234	      1.02626171	      0.31079379	      2.80692162	      3.18770894	      3.78455055	    -11.68452671	      5.57124648	    -14.56952676	      5.46671981	     17.96415302	     -0.78380203	     -6.21348411	    -62.98279982	      4.34972310	    -10.43061790	      3.46328470	     -2.96093962	     -1.09695824	      4.57017790
      0.86266667	      1.03925968	      1.02917172	     -0.98380820	     -0.32519761	      1.02656565	      0.31106789	      2.31767566	      3.10078369	      3.87360339	    -11.35152260	      5.67635972	    -14.40439870	      5.54037815	     18.38052806	     -0.76051825	     -6.37935140	    -62.29936235	      4.52905135	     -9.92571810	      3.57650272	     -3.01725898	     -1.16047934	      4.87215044
      0.86683333	      1.02907500	      1.08726895	     -1.17168940	     -0.32007745	      1.02676318	      0.31132256	      1.86207302	      3.01556155	      3.95435251	    -11.03329315	      5.79168184	    -14.24091037	      5.61323683	     18.81539266	     -0.74279628	     -6.54030587	    -61.58643089	      4.69448593	     -9.45575850	      3.69348369	     -3.04129804	     -1.21918597	      5.15682474
      0.87100000	      1.05129254	      1.13679677	     -1.35220243	     -0.31497481	      1.02698168	      0.31155434	      1.36615968	      2.93628922	      4.03886033	    -10.70136060	      5.89286813	    -14.08099640	      5.69898680	     19.19990766	     -0.72984181	     -6.68871777	    -60.82925312	      4.84110859	     -9.02860031	      3.83651551	     -3.11379691	     -1.26240144	      5.45541061
      0.87516667	      1.04995665	      1.18114864	     -1.52463583	     -0.30985847	      1.02710751	      0.31177636	      0.90154967	      2.86096639	      4.10197049	    -10.38407382	      6.00622396	    -13.93645396	      5.76516095	     19.59830411	     -0.72905949	     -6.84279898	    -60.04038108	      4.97145338	     -8.63515868	      3.95156617	     -3.14224457	     -1.30918392	      5.68887827
      0.87933333	      1.01974240	      1.22872463	     -1.68930338	     -0.30475386	      1.02714882	      0.31197519	      0.47378040	      2.78105197	      4.16818959	    -10.07522276	      6.08624686	    -13.79053309	      5.80871065	     20.01537933	     -0.71801532	     -6.97905686	    -59.21140904	      5.06481159	     -8.30077077	      4.02941917	     -3.14875685	     -1.36155121	      5.87483882
      0.88350000	      1.03443473	      1.24169069	     -1.83487959	     -0.29967061	      1.02718837	      0.31214128	     -0.01448150	      2.73641737	      4.23937046	     -9.74693279	      6.22839865	    -13.64434032	      5.89167027	     20.37875193	     -0.74260361	     -7.09594897	    -58.36913681	      5.18724235	     -7.98401383	      4.18334473	     -3.22187579	     -1.36241145	      6.20134906
